<?xml version="1.0" ?><svg height="60px" version="1.1" viewBox="0 0 60 60" width="60px" xmlns="http://www.w3.org/2000/svg" xmlns:xlink="http://www.w3.org/1999/xlink"><title/><desc/><defs/><g fill="none" fill-rule="evenodd" id="Page-1" stroke="none" stroke-width="1"><g id="002---Bauble" transform="translate(1.000000, 1.000000)"><g fill-rule="nonzero" id="Colour" transform="translate(0.000000, 1.000000)"><path d="M52.14084,13.73373 L55.60192,10.27265 C56.4154199,9.45437055 56.4154199,8.13273945 55.60192,7.31446 L49.68554,1.39808 C48.8672606,0.584580064 47.5456294,0.584580064 46.72735,1.39808 L43.26627,4.85916 L52.14084,13.73373 Z" fill="#FFC900" id="Shape"/><circle cx="28.23868" cy="28.76132" fill="#008AC7" id="Oval" r="28.23868"/><ellipse cx="26.73868" cy="28.76132" fill="#00B7F6" id="Oval" rx="26.73868" ry="28.23868"/><path d="M35.13332,8.76157 L34.29179,11.24313 C34.1812485,11.5691265 34.2381942,11.9286426 34.44407,12.20452 L36.01124,14.30458 C36.2493366,14.6236368 36.2856522,15.0501985 36.1049173,15.4049127 C35.9241824,15.7596269 35.5577421,15.9809755 35.15967,15.97589 L32.53952,15.9424 C32.1953201,15.9379971 31.8709942,16.1032489 31.67224,16.3843 L30.15924,18.52373 C29.9293746,18.8487674 29.5349121,19.0151201 29.1417085,18.9528433 C28.748505,18.8905665 28.424754,18.6104609 28.30658,18.2303 L27.52877,15.728 C27.4265876,15.3992878 27.1692022,15.1419024 26.84049,15.03972 L24.33823,14.2619 C23.9580691,14.143726 23.6779635,13.819975 23.6156867,13.4267715 C23.5534099,13.0335679 23.7197626,12.6391054 24.0448,12.40924 L26.18422,10.89624 C26.4652762,10.6974892 26.6305324,10.3731621 26.62613,10.02896 L26.59264,7.40881 C26.5875593,7.01072894 26.8089222,6.64428466 27.1636509,6.46355848 C27.5183795,6.2828323 27.9449502,6.31916906 28.264,6.55729 L30.364,8.12446 C30.6398801,8.33033902 30.9994025,8.38728146 31.3254,8.27673 L33.807,7.43521 C34.1840131,7.30738052 34.6009045,7.40466729 34.8823956,7.68616685 C35.1638866,7.96766641 35.2611609,8.3845608 35.13332,8.76157 Z" fill="#FFEB49" id="Shape"/><path d="M47.4596,34.142 L46.344,37.4318 C46.2334485,37.7577943 46.2903911,38.1173136 46.49627,38.39319 L48.57387,41.17724 C48.8119689,41.496295 48.8482855,41.9228569 48.6675498,42.2775706 C48.4868142,42.6322842 48.1203719,42.8536303 47.7223,42.84854 L44.24877,42.80414 C43.9045687,42.7997411 43.5802432,42.9649965 43.38149,43.24605 L41.37572,46.08229 C41.145853,46.4073271 40.7513891,46.5736783 40.3581853,46.5113994 C39.9649814,46.4491204 39.6412315,46.1690123 39.52306,45.78885 L38.49191,42.47162 C38.38973,42.1429007 38.1323393,41.88551 37.80362,41.78333 L34.48639,40.75218 C34.1062277,40.6340085 33.8261196,40.3102586 33.7638406,39.9170547 C33.7015617,39.5238509 33.8679129,39.129387 34.19295,38.89952 L37.02919,36.89375 C37.3102435,36.6949968 37.4754989,36.3706713 37.4711,36.02647 L37.4267,32.553 C37.4216097,32.1549281 37.6429558,31.7884858 37.9976694,31.6077502 C38.3523831,31.4270145 38.778945,31.4633311 39.098,31.70143 L41.88205,33.77903 C42.1579264,33.9849089 42.5174457,34.0418515 42.84344,33.9313 L46.13324,32.8157 C46.5102447,32.6878639 46.9271323,32.7851366 47.2086299,33.0666214 C47.4901275,33.3481063 47.587419,33.7649895 47.4596,34.142 L47.4596,34.142 Z" fill="#FFEB49" id="Shape"/><path d="M21.89556,27.775 L20.40746,32.16325 C20.2969085,32.4892475 20.353851,32.8487699 20.55973,33.12465 L23.331,36.83822 C23.5690978,37.1572783 23.6054125,37.5838423 23.4246751,37.9385573 C23.2439378,38.2932723 22.8774939,38.5146193 22.47942,38.50953 L17.8461,38.45031 C17.5018982,38.4459107 17.1775709,38.6111614 16.97881,38.89221 L14.30333,42.67546 C14.0734646,43.0004974 13.6790021,43.1668501 13.2857985,43.1045733 C12.892595,43.0422965 12.568844,42.7621909 12.45067,42.38203 L11.07522,37.95718 C10.97304,37.6284607 10.7156493,37.37107 10.38693,37.26889 L5.96212,35.89344 C5.58195909,35.775266 5.30185351,35.451515 5.23957673,35.0583115 C5.17729995,34.6651079 5.34365264,34.2706454 5.66869,34.04078 L9.45193,31.3653 C9.73298513,31.1665437 9.89824049,30.8422144 9.89384,30.49801 L9.83462,25.86469 C9.82952582,25.4666163 10.0508704,25.1001705 10.4055849,24.9194323 C10.7602993,24.7386941 11.1868636,24.7750099 11.50592,25.01311 L15.21955,27.78442 C15.4954301,27.990299 15.8549525,28.0472415 16.18095,27.93669 L20.5692,26.44859 C20.9462293,26.3207277 21.3631544,26.4180089 21.6446627,26.6995278 C21.9261711,26.9810468 22.0234365,27.3979755 21.89556,27.775 Z" fill="#FFEB49" id="Shape"/></g><g id="Outline" stroke="#000000" stroke-linecap="round" stroke-linejoin="round"><circle cx="28.23868" cy="29.76132" id="Oval" r="28.23868" stroke-width="2"/><path d="M52.14084,14.73373 L55.60192,11.27265 C56.4154199,10.4543706 56.4154199,9.13273945 55.60192,8.31446 L49.68554,2.39808 C48.8672606,1.58458006 47.5456294,1.58458006 46.72735,2.39808 L43.26627,5.85916" id="Shape" stroke-width="2"/><circle cx="54.86237" cy="3.13763" id="Oval" r="3.13763" stroke-width="2"/><path d="M35.13332,9.76157 L34.29179,12.24313 C34.1812485,12.5691265 34.2381942,12.9286426 34.44407,13.20452 L36.01124,15.30458 C36.2493366,15.6236368 36.2856522,16.0501985 36.1049173,16.4049127 C35.9241824,16.7596269 35.5577421,16.9809755 35.15967,16.97589 L32.53952,16.9424 C32.1953201,16.9379971 31.8709942,17.1032489 31.67224,17.3843 L30.15924,19.52373 C29.9293746,19.8487674 29.5349121,20.0151201 29.1417085,19.9528433 C28.748505,19.8905665 28.424754,19.6104609 28.30658,19.2303 L27.52877,16.728 C27.4265876,16.3992878 27.1692022,16.1419024 26.84049,16.03972 L24.33823,15.2619 C23.9580691,15.143726 23.6779635,14.819975 23.6156867,14.4267715 C23.5534099,14.0335679 23.7197626,13.6391054 24.0448,13.40924 L26.18422,11.89624 C26.4652762,11.6974892 26.6305324,11.3731621 26.62613,11.02896 L26.59264,8.40881 C26.5875593,8.01072894 26.8089222,7.64428466 27.1636509,7.46355848 C27.5183795,7.2828323 27.9449502,7.31916906 28.264,7.55729 L30.364,9.12446 C30.6398801,9.33033902 30.9994025,9.38728146 31.3254,9.27673 L33.807,8.43521 C34.1840131,8.30738052 34.6009045,8.40466729 34.8823956,8.68616685 C35.1638866,8.96766641 35.2611609,9.3845608 35.13332,9.76157 Z" id="Shape"/><path d="M47.4596,35.142 L46.344,38.4318 C46.2334485,38.7577943 46.2903911,39.1173136 46.49627,39.39319 L48.57387,42.17724 C48.8119689,42.496295 48.8482855,42.9228569 48.6675498,43.2775706 C48.4868142,43.6322842 48.1203719,43.8536303 47.7223,43.84854 L44.24877,43.80414 C43.9045687,43.7997411 43.5802432,43.9649965 43.38149,44.24605 L41.37572,47.08229 C41.145853,47.4073271 40.7513891,47.5736783 40.3581853,47.5113994 C39.9649814,47.4491204 39.6412315,47.1690123 39.52306,46.78885 L38.49191,43.47162 C38.38973,43.1429007 38.1323393,42.88551 37.80362,42.78333 L34.48639,41.75218 C34.1062277,41.6340085 33.8261196,41.3102586 33.7638406,40.9170547 C33.7015617,40.5238509 33.8679129,40.129387 34.19295,39.89952 L37.02919,37.89375 C37.3102435,37.6949968 37.4754989,37.3706713 37.4711,37.02647 L37.4267,33.553 C37.4216097,33.1549281 37.6429558,32.7884858 37.9976694,32.6077502 C38.3523831,32.4270145 38.778945,32.4633311 39.098,32.70143 L41.88205,34.77903 C42.1579264,34.9849089 42.5174457,35.0418515 42.84344,34.9313 L46.13324,33.8157 C46.5102447,33.6878639 46.9271323,33.7851366 47.2086299,34.0666214 C47.4901275,34.3481063 47.587419,34.7649895 47.4596,35.142 L47.4596,35.142 Z" id="Shape"/><path d="M21.89556,28.775 L20.40746,33.16325 C20.2969085,33.4892475 20.353851,33.8487699 20.55973,34.12465 L23.331,37.83822 C23.5690978,38.1572783 23.6054125,38.5838423 23.4246751,38.9385573 C23.2439378,39.2932723 22.8774939,39.5146193 22.47942,39.50953 L17.8461,39.45031 C17.5018982,39.4459107 17.1775709,39.6111614 16.97881,39.89221 L14.30333,43.67546 C14.0734646,44.0004974 13.6790021,44.1668501 13.2857985,44.1045733 C12.892595,44.0422965 12.568844,43.7621909 12.45067,43.38203 L11.07522,38.95718 C10.97304,38.6284607 10.7156493,38.37107 10.38693,38.26889 L5.96212,36.89344 C5.58195909,36.775266 5.30185351,36.451515 5.23957673,36.0583115 C5.17729995,35.6651079 5.34365264,35.2706454 5.66869,35.04078 L9.45193,32.3653 C9.73298513,32.1665437 9.89824049,31.8422144 9.89384,31.49801 L9.83462,26.86469 C9.82952582,26.4666163 10.0508704,26.1001705 10.4055849,25.9194323 C10.7602993,25.7386941 11.1868636,25.7750099 11.50592,26.01311 L15.21955,28.78442 C15.4954301,28.990299 15.8549525,29.0472415 16.18095,28.93669 L20.5692,27.44859 C20.9462293,27.3207277 21.3631544,27.4180089 21.6446627,27.6995278 C21.9261711,27.9810468 22.0234365,28.3979755 21.89556,28.775 Z" id="Shape"/></g></g></g></svg>